<?xml version="1.0" encoding="UTF-8" standalone="no"?>
<svg width="1600" height="900" xmlns="http://www.w3.org/2000/svg">
  <defs>
    <linearGradient id="skyGradient" x1="0%" y1="0%" x2="0%" y2="100%">
      <stop offset="0%" style="stop-color:#37474f;stop-opacity:1" />
      <stop offset="100%" style="stop-color:#546e7a;stop-opacity:1" />
    </linearGradient>
    <radialGradient id="lightGlow" cx="50%" cy="50%" r="50%" fx="50%" fy="50%">
      <stop offset="0%" style="stop-color:#fff;stop-opacity:1" />
      <stop offset="100%" style="stop-color:#fff;stop-opacity:0" />
    </radialGradient>
  </defs>
  <rect width="1600" height="900" fill="url(#skyGradient)"/>

  <!-- City Skyline -->
  <g fill="#263238" opacity="0.9">
    <rect x="0" y="500" width="1600" height="400"/>
    <rect x="50" y="300" width="80" height="200"/>
    <rect x="150" y="350" width="100" height="150"/>
    <rect x="270" y="250" width="60" height="250"/>
    <rect x="350" y="400" width="120" height="100"/>
    <rect x="490" y="320" width="70" height="180"/>
    <rect x="580" y="280" width="90" height="220"/>
    <rect x="690" y="350" width="110" height="150"/>
    <rect x="820" y="300" width="60" height="200"/>
    <rect x="900" y="250" width="130" height="250"/>
    <rect x="1050" y="320" width="80" height="180"/>
    <rect x="1150" y="280" width="100" height="220"/>
    <rect x="1270" y="350" width="70" height="150"/>
    <rect x="1360" y="300" width="90" height="200"/>
    <rect x="1470" y="250" width="120" height="250"/>
  </g>

  <!-- Digital Billboard -->
  <g>
    <rect x="400" y="100" width="800" height="400" fill="#000" stroke="#333" stroke-width="10"/>
    <rect x="420" y="120" width="760" height="360" fill="#000"/>

    <!-- Digital Display Effect -->
    <rect x="430" y="130" width="740" height="340" fill="#111"/>
    <rect x="440" y="140" width="720" height="320" fill="#222"/>

    <!-- Digital content effect -->
    <rect x="450" y="150" width="700" height="300" fill="#333" rx="5"/>
    <rect x="470" y="170" width="660" height="260" fill="#444" rx="5"/>

    <!-- Light effect -->
    <circle cx="800" cy="300" r="300" fill="url(#lightGlow)" opacity="0.1"/>
  </g>

  <!-- Billboard Support -->
  <rect x="780" y="500" width="40" height="50" fill="#555"/>

  <!-- Street Lights -->
  <g>
    <rect x="200" y="500" width="10" height="100" fill="#555"/>
    <circle cx="205" cy="500" r="15" fill="#FFC107" opacity="0.8"/>

    <rect x="600" y="500" width="10" height="100" fill="#555"/>
    <circle cx="605" cy="500" r="15" fill="#FFC107" opacity="0.8"/>

    <rect x="1000" y="500" width="10" height="100" fill="#555"/>
    <circle cx="1005" cy="500" r="15" fill="#FFC107" opacity="0.8"/>

    <rect x="1400" y="500" width="10" height="100" fill="#555"/>
    <circle cx="1405" cy="500" r="15" fill="#FFC107" opacity="0.8"/>
  </g>

  <!-- Stars -->
  <g fill="#fff">
    <circle cx="100" cy="100" r="2"/>
    <circle cx="200" cy="150" r="1"/>
    <circle cx="300" cy="80" r="2"/>
    <circle cx="400" cy="120" r="1"/>
    <circle cx="500" cy="90" r="2"/>
    <circle cx="600" cy="130" r="1"/>
    <circle cx="700" cy="70" r="2"/>
    <circle cx="800" cy="110" r="1"/>
    <circle cx="900" cy="140" r="2"/>
    <circle cx="1000" cy="60" r="1"/>
    <circle cx="1100" cy="100" r="2"/>
    <circle cx="1200" cy="130" r="1"/>
    <circle cx="1300" cy="80" r="2"/>
    <circle cx="1400" cy="120" r="1"/>
    <circle cx="1500" cy="90" r="2"/>
  </g>
</svg>
