<?xml version="1.0" encoding="UTF-8" standalone="no"?>
<svg width="1600" height="900" xmlns="http://www.w3.org/2000/svg">
  <defs>
    <linearGradient id="skyGradient" x1="0%" y1="0%" x2="0%" y2="100%">
      <stop offset="0%" style="stop-color:#1565c0;stop-opacity:1" />
      <stop offset="100%" style="stop-color:#42a5f5;stop-opacity:1" />
    </linearGradient>
  </defs>
  <rect width="1600" height="900" fill="url(#skyGradient)"/>
  
  <!-- Clouds -->
  <g fill="#fff" opacity="0.8">
    <ellipse cx="200" cy="200" rx="100" ry="60"/>
    <ellipse cx="300" cy="180" rx="80" ry="50"/>
    <ellipse cx="400" cy="220" rx="90" ry="55"/>
    
    <ellipse cx="1000" cy="150" rx="120" ry="70"/>
    <ellipse cx="1100" cy="130" rx="90" ry="60"/>
    <ellipse cx="1200" cy="170" rx="100" ry="65"/>
    
    <ellipse cx="600" cy="100" rx="80" ry="40"/>
    <ellipse cx="700" cy="120" rx="70" ry="35"/>
  </g>
  
  <!-- Ground -->
  <rect x="0" y="600" width="1600" height="300" fill="#4CAF50" opacity="0.7"/>
  
  <!-- Hoarding Structure -->
  <g>
    <rect x="200" y="200" width="1200" height="350" fill="#fff" stroke="#333" stroke-width="8"/>
    <rect x="220" y="220" width="1160" height="310" fill="#f5f5f5"/>
    
    <!-- Flex Banner Content -->
    <text x="800" y="320" font-family="Arial" font-size="70" text-anchor="middle" fill="#333" font-weight="bold">FLEX BANNERS</text>
    <text x="800" y="420" font-family="Arial" font-size="40" text-anchor="middle" fill="#4CAF50">High-Quality Printing • Weather Resistant</text>
    <text x="800" y="480" font-family="Arial" font-size="30" text-anchor="middle" fill="#333">Contact: 123-456-7890</text>
  </g>
  
  <!-- Support Poles -->
  <rect x="300" y="550" width="20" height="50" fill="#555"/>
  <rect x="1280" y="550" width="20" height="50" fill="#555"/>
  
  <!-- Trees -->
  <g>
    <ellipse cx="100" cy="600" rx="50" ry="80" fill="#2e7d32"/>
    <rect x="95" y="600" width="10" height="100" fill="#795548"/>
    
    <ellipse cx="1500" cy="600" rx="60" ry="90" fill="#2e7d32"/>
    <rect x="1495" y="600" width="10" height="110" fill="#795548"/>
    
    <ellipse cx="1400" cy="620" rx="40" ry="70" fill="#2e7d32"/>
    <rect x="1395" y="620" width="10" height="90" fill="#795548"/>
  </g>
</svg>
