<?xml version="1.0" encoding="UTF-8" standalone="no"?>
<svg width="1600" height="900" xmlns="http://www.w3.org/2000/svg">
  <defs>
    <linearGradient id="skyGradient" x1="0%" y1="0%" x2="0%" y2="100%">
      <stop offset="0%" style="stop-color:#1a237e;stop-opacity:1" />
      <stop offset="100%" style="stop-color:#283593;stop-opacity:1" />
    </linearGradient>
  </defs>
  <rect width="1600" height="900" fill="url(#skyGradient)"/>
  
  <!-- City Skyline -->
  <g fill="#1a1a1a" opacity="0.8">
    <rect x="0" y="600" width="1600" height="300"/>
    <rect x="100" y="400" width="100" height="200"/>
    <rect x="220" y="350" width="80" height="250"/>
    <rect x="320" y="450" width="120" height="150"/>
    <rect x="460" y="300" width="70" height="300"/>
    <rect x="550" y="380" width="90" height="220"/>
    <rect x="660" y="280" width="110" height="320"/>
    <rect x="790" y="350" width="60" height="250"/>
    <rect x="870" y="400" width="130" height="200"/>
    <rect x="1020" y="320" width="80" height="280"/>
    <rect x="1120" y="380" width="100" height="220"/>
    <rect x="1240" y="420" width="70" height="180"/>
    <rect x="1330" y="350" width="90" height="250"/>
    <rect x="1440" y="400" width="120" height="200"/>
  </g>
  
  <!-- Billboard -->
  <g>
    <rect x="400" y="150" width="800" height="400" fill="#fff" stroke="#333" stroke-width="10"/>
    <text x="800" y="350" font-family="Arial" font-size="60" text-anchor="middle" fill="#4CAF50" font-weight="bold">PREMIUM BILLBOARD LOCATION</text>
    <text x="800" y="420" font-family="Arial" font-size="40" text-anchor="middle" fill="#333">Reach Thousands Daily</text>
  </g>
  
  <!-- Billboard Support -->
  <rect x="780" y="550" width="40" height="50" fill="#555"/>
  
  <!-- Stars -->
  <g fill="#fff">
    <circle cx="100" cy="100" r="2"/>
    <circle cx="200" cy="150" r="1"/>
    <circle cx="300" cy="80" r="2"/>
    <circle cx="400" cy="120" r="1"/>
    <circle cx="500" cy="90" r="2"/>
    <circle cx="600" cy="130" r="1"/>
    <circle cx="700" cy="70" r="2"/>
    <circle cx="800" cy="110" r="1"/>
    <circle cx="900" cy="140" r="2"/>
    <circle cx="1000" cy="60" r="1"/>
    <circle cx="1100" cy="100" r="2"/>
    <circle cx="1200" cy="130" r="1"/>
    <circle cx="1300" cy="80" r="2"/>
    <circle cx="1400" cy="120" r="1"/>
    <circle cx="1500" cy="90" r="2"/>
  </g>
</svg>
